<?xml version="1.0" standalone="no"?>
<!DOCTYPE svg PUBLIC "-//W3C//DTD SVG 20010904//EN"
 "http://www.w3.org/TR/2001/REC-SVG-20010904/DTD/svg10.dtd">
<svg version="1.0" xmlns="http://www.w3.org/2000/svg"
 width="492.000000pt" height="492.000000pt" viewBox="0 0 492.000000 492.000000"
 preserveAspectRatio="xMidYMid meet">
<metadata>
Created by potrace 1.11, written by Peter Selinger 2001-2013
</metadata>
<g transform="translate(0.000000,492.000000) scale(0.100000,-0.100000)"
fill="#000000" stroke="none">
<path d="M1780 4460 c-9 -6 -10 -10 -3 -10 6 0 15 5 18 10 8 12 4 12 -15 0z"/>
<path d="M1800 4440 c0 -5 5 -10 11 -10 5 0 7 5 4 10 -3 6 -8 10 -11 10 -2 0
-4 -4 -4 -10z"/>
<path d="M2277 4434 c-3 -3 -3 -12 0 -20 3 -8 0 -14 -7 -14 -6 0 -9 -4 -5 -9
7 -12 -29 -33 -41 -23 -5 4 -3 0 3 -8 10 -13 8 -16 -9 -17 -12 -1 -25 -8 -29
-15 -7 -10 -9 -9 -9 4 0 13 -7 17 -24 16 -18 -2 -22 -5 -15 -14 7 -9 4 -19
-10 -33 -12 -12 -21 -18 -21 -14 0 4 -5 2 -12 -5 -18 -18 -31 -15 -24 6 5 15
4 14 -9 -2 -8 -10 -12 -22 -10 -27 9 -14 -24 -3 -43 14 -24 22 -32 21 -32 0
-1 -17 -1 -17 -14 0 -11 14 -15 15 -19 3 -5 -14 18 -31 36 -27 5 1 6 -3 2 -9
-5 -8 -11 -7 -21 1 -11 9 -14 8 -14 -6 0 -15 -2 -16 -17 -4 -11 10 -14 10 -9
2 4 -7 9 -22 11 -32 3 -15 -2 -19 -19 -17 -15 2 -22 -3 -22 -15 0 -10 4 -15 9
-12 5 3 3 -4 -5 -16 -7 -12 -19 -19 -27 -16 -9 4 -11 0 -7 -11 5 -14 4 -15 -9
-4 -13 11 -14 10 -8 -5 5 -15 3 -17 -11 -12 -10 4 -15 3 -11 -3 3 -6 1 -10 -5
-10 -6 0 -8 -5 -4 -11 4 -8 0 -8 -15 0 -18 10 -20 9 -14 -5 4 -12 3 -15 -5
-10 -7 4 -12 3 -12 -2 0 -5 -12 -7 -26 -4 -23 4 -25 2 -19 -17 6 -21 5 -22
-14 -12 -17 10 -20 9 -15 -4 8 -20 -25 -33 -37 -14 -5 8 -9 9 -9 4 0 -6 6 -17
13 -24 10 -11 10 -13 0 -7 -8 5 -13 1 -13 -11 0 -15 -2 -16 -11 -3 -9 12 -10
11 -6 -8 3 -12 1 -20 -4 -16 -5 3 -9 1 -9 -5 0 -6 -7 -8 -15 -5 -8 4 -12 10
-9 15 3 5 -3 6 -12 2 -11 -4 -13 -8 -6 -11 7 -2 9 -9 6 -14 -4 -6 -2 -8 4 -4
6 3 14 2 17 -4 4 -6 1 -9 -7 -8 -7 2 -12 -2 -11 -9 2 -7 -4 -10 -12 -7 -17 7
-20 -7 -5 -22 7 -7 6 -11 -5 -11 -8 0 -15 5 -15 11 0 6 -4 4 -9 -4 -6 -8 -7
-18 -5 -22 3 -5 2 -8 -3 -7 -4 1 -17 1 -28 0 -15 -1 -17 -3 -6 -10 9 -6 10
-11 2 -15 -6 -4 -8 -13 -4 -19 4 -7 -1 -6 -11 2 -15 12 -17 12 -14 0 2 -8 8
-17 13 -21 6 -5 5 -8 -4 -8 -8 0 -11 -6 -7 -16 5 -13 3 -14 -7 -6 -10 9 -12 2
-10 -30 1 -30 -1 -39 -12 -34 -9 3 -12 0 -8 -9 3 -8 8 -13 12 -10 4 2 8 -2 8
-9 0 -8 -6 -12 -12 -9 -8 3 -11 -5 -10 -21 2 -14 -1 -26 -6 -26 -6 0 -7 -4 -4
-10 3 -5 1 -10 -5 -10 -7 0 -10 -7 -6 -15 3 -8 1 -15 -5 -15 -6 0 -7 -4 -4
-10 3 -5 -3 -17 -15 -27 -11 -10 -20 -23 -20 -30 0 -7 -4 -13 -10 -13 -5 0
-10 -7 -10 -15 0 -8 -8 -19 -19 -24 -10 -6 -22 -22 -25 -36 -4 -17 -11 -23
-19 -18 -7 4 -7 0 2 -10 12 -15 12 -17 -4 -10 -14 5 -17 3 -12 -10 3 -9 3 -16
-1 -16 -18 3 -32 -2 -32 -12 0 -5 6 -7 13 -3 6 4 0 -4 -15 -19 -16 -14 -28
-33 -28 -41 0 -8 -6 -17 -12 -19 -10 -4 -9 -6 1 -6 11 -1 11 -4 0 -18 -12 -14
-12 -16 1 -9 9 4 8 1 -2 -7 -23 -18 -23 -28 0 -20 11 3 9 -1 -6 -12 -14 -10
-21 -23 -18 -32 4 -9 -1 -17 -14 -20 -11 -3 -17 -9 -14 -14 3 -5 1 -9 -5 -9
-6 0 -7 -7 -4 -17 4 -11 3 -14 -5 -9 -11 6 -14 -1 -12 -29 1 -3 -7 -13 -15
-22 -13 -13 -14 -18 -3 -24 10 -7 9 -9 -5 -9 -10 0 -16 -4 -12 -9 3 -5 1 -12
-5 -16 -6 -4 -8 -10 -5 -15 3 -4 -2 -10 -10 -14 -8 -3 -15 -14 -15 -25 0 -11
-5 -23 -10 -26 -6 -4 -8 -11 -5 -16 4 -5 1 -9 -5 -9 -6 0 -10 -6 -9 -12 3 -26
-1 -39 -11 -33 -9 6 -14 -8 -11 -27 0 -5 -3 -8 -8 -8 -5 0 -8 -11 -7 -25 2
-13 0 -22 -4 -20 -7 4 -48 -79 -55 -110 -3 -13 -11 -37 -36 -101 -11 -28 -21
-59 -23 -70 -2 -10 -11 -39 -20 -63 -8 -25 -13 -48 -10 -53 3 -4 0 -8 -5 -8
-7 0 -11 -360 -11 -1155 l0 -1155 1641 0 1640 0 -3 885 c-2 735 -5 887 -17
894 -11 7 -11 9 0 14 9 4 11 8 4 14 -10 7 -15 33 -18 86 -1 9 -4 17 -7 17 -3
0 -6 15 -8 33 -3 35 -6 54 -14 77 -7 18 -33 103 -34 110 0 3 -4 14 -9 24 -5
10 -9 28 -10 40 -5 46 -18 106 -24 106 -3 0 -7 16 -8 36 -1 20 -5 44 -9 53 -6
15 -12 40 -16 69 -1 6 -4 12 -7 12 -4 0 -8 12 -9 26 -1 14 -10 51 -19 82 -9
31 -18 64 -18 72 -1 8 -5 23 -9 32 -4 9 -8 22 -10 30 -1 7 -5 19 -9 26 -5 6
-6 12 -3 12 2 0 -11 30 -29 66 -19 37 -32 71 -29 75 3 5 2 9 -3 9 -4 0 -13 12
-19 28 -47 114 -70 162 -77 162 -4 0 -5 5 -1 12 4 6 -1 17 -11 25 -11 7 -16
13 -12 13 4 0 2 10 -5 23 -7 12 -11 25 -10 30 1 4 -2 7 -8 7 -5 0 -10 7 -10
15 0 8 -4 15 -8 15 -4 0 -8 10 -9 22 -1 11 -8 25 -15 29 -7 5 -8 9 -3 9 6 0 1
7 -9 15 -11 8 -16 15 -12 15 5 0 3 7 -4 15 -7 8 -9 15 -6 15 4 0 1 6 -6 13 -7
8 -22 26 -33 41 -11 15 -31 40 -45 55 -48 53 -65 77 -68 96 -2 11 -7 22 -10
25 -11 8 -10 50 1 50 5 0 4 6 -2 14 -8 10 -9 16 -1 21 6 3 7 12 3 18 -10 17
-15 37 -15 69 0 15 -4 25 -9 22 -13 -8 -11 10 4 25 6 7 8 12 2 11 -23 -5 -45
1 -45 11 0 5 5 7 11 3 8 -4 7 0 -1 15 -6 12 -15 19 -20 16 -5 -3 -11 -1 -14 4
-4 5 -2 12 4 16 13 8 13 25 -1 25 -5 0 -7 -5 -3 -11 3 -6 -5 -3 -20 6 -14 10
-26 23 -26 30 0 7 -7 16 -16 19 -9 3 -12 11 -8 18 5 8 2 9 -10 5 -10 -4 -15
-3 -11 3 6 10 -28 32 -39 25 -3 -3 -4 -2 -1 1 8 11 -23 34 -38 28 -17 -6 -41
28 -29 40 3 4 -1 4 -11 0 -9 -3 -14 -11 -10 -18 4 -6 -1 -5 -10 3 -9 7 -17 21
-18 30 0 11 -2 12 -6 3 -4 -10 -8 -10 -19 -1 -11 9 -14 8 -14 -2 -1 -11 -3
-10 -13 2 -7 9 -22 15 -34 14 -13 -1 -21 0 -18 3 6 7 -22 32 -37 32 -10 0 -9
3 2 10 13 8 12 10 -5 11 -11 1 -24 1 -28 0 -5 -1 -6 3 -2 9 3 6 12 7 18 4 9
-5 9 -4 0 6 -6 7 -9 20 -6 29 4 9 -3 5 -15 -9 -12 -14 -21 -19 -22 -12 0 7 -4
11 -8 8 -5 -3 -9 1 -9 9 0 8 4 12 8 10 4 -3 6 3 4 12 -2 10 -4 21 -4 26 -1 4
-9 7 -18 7 -17 -1 -17 -1 0 -14 17 -13 16 -14 -3 -19 -11 -3 -18 -2 -16 2 3 4
1 13 -5 21 -7 13 -9 12 -9 -2 0 -10 -5 -18 -11 -18 -6 0 -8 7 -5 16 5 14 4 15
-9 4 -13 -11 -14 -10 -9 5 5 13 4 16 -4 11 -8 -5 -12 0 -12 13 0 12 5 21 11
21 5 0 7 -6 3 -12 -4 -7 -4 -10 1 -6 4 4 15 3 24 -3 9 -6 5 -1 -9 12 -19 18
-25 34 -24 62 1 21 -3 40 -8 43 -5 3 -8 2 -7 -3 1 -4 0 -11 -1 -15 -1 -5 -3
-14 -4 -20 0 -8 -15 -13 -32 -13 -29 0 -31 -2 -28 -30 3 -24 2 -26 -5 -10 -8
19 -8 19 -12 1 -4 -19 -4 -19 -19 -1 -8 11 -10 16 -4 12 7 -4 14 -1 17 6 6 16
-6 39 -19 38 -5 -1 -9 2 -9 7 -1 17 -18 33 -31 28 -8 -3 -14 0 -14 6 0 7 -6 3
-14 -7 -8 -11 -12 -23 -10 -27 2 -4 0 -9 -5 -12 -10 -7 -9 13 2 31 5 8 1 11
-13 10 -15 -1 -19 -6 -15 -22 5 -18 5 -18 -5 -2 -6 9 -16 14 -22 11 -7 -5 -9
-1 -5 9 3 9 1 19 -5 23 -7 4 -8 3 -4 -4 11 -19 -15 -14 -31 6 -13 15 -13 15
-3 -5 6 -13 8 -23 4 -23 -3 0 -15 10 -25 23 -20 21 -20 21 -10 0 8 -16 7 -22
-5 -27 -31 -12 -63 -6 -77 15 -9 13 -17 16 -22 10 -3 -6 -11 -11 -16 -11 -6 0
-8 4 -5 9 3 5 -1 12 -10 15 -8 3 -12 10 -9 16 7 11 2 14 -8 4z m343 -74 c-8
-5 -7 -9 4 -13 9 -4 13 -13 10 -22 -9 -22 -24 -19 -24 6 0 13 -4 18 -12 13 -7
-4 -8 -3 -4 4 4 7 1 12 -6 12 -10 0 -10 2 1 9 8 5 21 7 28 4 11 -4 11 -8 3
-13z m-450 -30 c0 -5 -2 -10 -4 -10 -3 0 -8 5 -11 10 -3 6 -1 10 4 10 6 0 11
-4 11 -10z m584 -12 c-3 -4 -12 -8 -20 -8 -8 0 -14 -4 -14 -10 0 -5 6 -8 13
-6 6 1 9 1 5 -1 -5 -3 -8 -11 -8 -19 0 -8 -5 -14 -11 -14 -5 0 -7 4 -4 10 3 5
1 18 -4 29 -8 14 -8 20 0 23 20 7 48 4 43 -4z"/>
<path d="M1790 4401 c0 -6 4 -12 8 -15 5 -3 9 1 9 9 0 8 -4 15 -9 15 -4 0 -8
-4 -8 -9z"/>
<path d="M1830 4401 c0 -6 4 -13 10 -16 6 -3 7 1 4 9 -7 18 -14 21 -14 7z"/>
<path d="M3031 4383 c-10 -26 -10 -27 4 -9 8 11 15 23 15 28 0 15 -7 8 -19
-19z"/>
<path d="M1950 4360 c0 -5 5 -10 11 -10 5 0 7 5 4 10 -3 6 -8 10 -11 10 -2 0
-4 -4 -4 -10z"/>
<path d="M2900 4355 c-7 -9 -11 -17 -9 -20 3 -2 10 5 17 15 14 24 10 26 -8 5z"/>
<path d="M3000 4335 c-7 -9 -11 -17 -9 -20 3 -2 10 5 17 15 14 24 10 26 -8 5z"/>
<path d="M1870 4321 c5 -11 15 -23 21 -27 6 -3 3 5 -6 20 -20 30 -30 35 -15 7z"/>
<path d="M2037 4283 c-4 -3 -7 -11 -7 -17 0 -6 5 -5 12 2 6 6 9 14 7 17 -3 3
-9 2 -12 -2z"/>
<path d="M1915 4260 c-3 -5 -1 -10 4 -10 6 0 11 5 11 10 0 6 -2 10 -4 10 -3 0
-8 -4 -11 -10z"/>
<path d="M1890 4215 c0 -10 29 -24 34 -17 3 6 -3 12 -14 15 -11 3 -20 4 -20 2z"/>
<path d="M3270 3961 c0 -6 4 -13 10 -16 6 -3 7 1 4 9 -7 18 -14 21 -14 7z"/>
<path d="M1550 3920 c0 -5 5 -10 11 -10 5 0 7 5 4 10 -3 6 -8 10 -11 10 -2 0
-4 -4 -4 -10z"/>
<path d="M3310 3926 c0 -2 7 -7 16 -10 8 -3 12 -2 9 4 -6 10 -25 14 -25 6z"/>
<path d="M1506 3860 c-18 -18 -18 -19 3 -13 12 3 21 12 21 19 0 17 -1 17 -24
-6z"/>
</g>
</svg>
